<svg id="Layer_1" data-name="Layer 1" xmlns="http://www.w3.org/2000/svg" viewBox="0 0 434.412 242.709"><defs><style>.cls-1{fill:#cda359;}.cls-2{fill:#669a9a;}.cls-3{fill:#8b794e;}</style></defs><path class="cls-1" d="M157.812,287.385l.162,125.771a13.751,13.751,0,0,1-13.725,13.331l-4.11,0-.03,2.227L186,428.66l-.038-2.227-4.107,0a13.751,13.751,0,0,1-13.765-13.479l-.147-114.192L150.81,279.208C153.279,282.163,155.611,284.946,157.812,287.385Z" transform="translate(-83.537 -240.394)"/><path class="cls-1" d="M247.4,413.916l.182-111.3a12.167,12.167,0,0,1,12.179-11.761l3.637.006.033-1.971-40.608-.066.027,1.971,3.635.006a12.17,12.17,0,0,1,12.146,11.964l-.165,101.05,15.11,17.353C251.393,418.549,249.337,416.08,247.4,413.916Z" transform="translate(-83.537 -240.394)"/><path class="cls-1" d="M328.581,445.1H303.659v-1.929c5.637-1.632,5.934-4.153,5.934-11.719V350c0-5.192-1.335-7.269-7.417-8.455V339.62l20.471-4v95.832c0,8.158.742,10.384,5.934,11.719Z" transform="translate(-83.537 -240.394)"/><path class="cls-1" d="M428.063,437.492c.142,6.755-30.559,13.251-46.628,16.095-17.675,3.128-34.2-6.819-37.816-27.27-3.9-22.057,8.316-39.822,25.261-42.821,15.046-2.662,29.349,5.8,33.433,28.885l-46.743,8.272c4.247,22.3,17.2,25.41,29.573,23.823,9.426-1.217,40.655.648,41.675-7.216Zm-35.992-25.107c-4.007-22.642-16.625-28.393-23.053-27.256-8.326,1.474-17.378,13.32-13.759,33.771Z" transform="translate(-83.537 -240.394)"/><path class="cls-1" d="M291.63,434.174l-23.011-.65-1.912-1.279c5.638-1.632,5.935-4.3,5.935-11.867V379.285c0-5.191-1.188-7.268-7.418-8.9v-1.78l20.323-4.3v56.075c0,8.306.742,10.532,6.083,11.867Z" transform="translate(-83.537 -240.394)"/><path class="cls-2" d="M83.537,243.647a18.587,18.587,0,0,1,8.137-2.965,32.2,32.2,0,0,1,8.813.031,54.764,54.764,0,0,1,16.738,5.556,94.823,94.823,0,0,1,14.871,9.452,163.584,163.584,0,0,1,13.346,11.421,262.748,262.748,0,0,1,23.343,26.026c7.246,9.109,13.949,18.61,20.354,28.282s12.448,19.567,18.24,29.591c1.465,2.552,2.88,4.857,4.317,7.286,1.448,2.389,2.986,4.718,4.467,7.082,3.116,4.62,6.287,9.2,9.745,13.544,3.39,4.4,7.031,8.575,10.756,12.659,3.794,4.018,7.718,7.9,11.857,11.538a157.126,157.126,0,0,0,41.473,26.5q7.567,3.251,15.448,5.73a171.889,171.889,0,0,0,32.357,6.787,206.078,206.078,0,0,0,33.311.966c5.575-.283,11.145-.794,16.7-1.487s11.1-1.562,16.608-2.641A247.629,247.629,0,0,0,437,430.356c5.324-1.811,10.574-3.837,15.7-6.093,2.558-1.129,5.086-2.317,7.54-3.6,1.224-.643,2.43-1.3,3.605-1.994,1.144-.672,2.345-1.455,3.551-2.216,9.617-6.076,19.054-12.474,27.135-20.272a64.381,64.381,0,0,0,10.543-13.114,146.241,146.241,0,0,0,7.884-15.241,127.442,127.442,0,0,1-6.024,16.251,66.758,66.758,0,0,1-9.557,14.742,110.893,110.893,0,0,1-12.456,12.39c-4.435,3.778-8.969,7.442-13.619,10.9-1.151.879-2.3,1.743-3.573,2.623-1.246.854-2.5,1.665-3.771,2.451-2.537,1.56-5.116,3-7.723,4.382-5.216,2.749-10.569,5.163-15.99,7.4s-10.942,4.222-16.522,6.021-11.229,3.409-16.941,4.773a216.019,216.019,0,0,1-70.328,5.619,180.943,180.943,0,0,1-35.082-6.785,175.646,175.646,0,0,1-16.871-6.156,161.481,161.481,0,0,1-45.171-29c-4.435-4.01-8.619-8.272-12.643-12.664-3.952-4.452-7.806-8.993-11.3-13.791-3.581-4.734-6.839-9.681-10.02-14.66-1.514-2.535-3.079-5.042-4.513-7.617-1.405-2.561-2.9-5.207-4.211-7.681-2.681-5.027-5.437-10.01-8.225-14.972s-5.628-9.893-8.551-14.77-5.9-9.718-8.951-14.508-6.23-9.49-9.443-14.164A264.85,264.85,0,0,0,140.544,271.9c-7.518-8.4-15.762-16.226-25.212-22.274a52.4,52.4,0,0,0-15.24-6.848,30.694,30.694,0,0,0-8.326-1.014,22.6,22.6,0,0,0-4.2.484A14.551,14.551,0,0,0,83.537,243.647Z" transform="translate(-83.537 -240.394)"/><path class="cls-2" d="M262.951,355.659a10.02,10.02,0,0,1,.36-2.5,6.209,6.209,0,0,1,2.145-3.308,8.123,8.123,0,0,1,5.578-1.21c2.024.138,4.116.576,6.106.571,4.985-.011,9.225-2.9,11.78-8.025-.823,7.7-4.938,12.748-10.433,12.807a32.166,32.166,0,0,1-6.135-.949,10.5,10.5,0,0,0-5.874.1c-1.747.714-3.155,2.478-3.424,5.258C263.054,358.4,262.914,356.717,262.951,355.659Z" transform="translate(-83.537 -240.394)"/><path class="cls-3" d="M361.513,479.286c-.061,0-.093-.023-.1-.071s.026-.072.1-.072q1.314-.072,1.314-2.088v-8.244q0-2.016-1.314-2.088c-.073,0-.106-.025-.1-.073s.038-.072.1-.072c.54.036.912.055,1.116.055h3.114q.378,0,1.188-.055c.084,0,.126.025.126.072s-.042.073-.126.073q-1.4.072-1.4,2.088v9.467a1.071,1.071,0,0,0,.136.639.6.6,0,0,0,.494.172,5.48,5.48,0,0,0,2.341-.486,4.632,4.632,0,0,0,1.71-1.332,7.506,7.506,0,0,0,1.4-3.709c.012-.083.042-.123.09-.117s.067.045.055.117q-.163,1.386-.252,2.908t-.072,2.51v.109a.581.581,0,0,1-.054.3.224.224,0,0,1-.2.081l-.468-.036a32.523,32.523,0,0,0-3.618-.2h-4.464Q362.323,479.232,361.513,479.286Z" transform="translate(-83.537 -240.394)"/><path class="cls-3" d="M382.528,475.785c.054-.006.08.027.08.1a4.939,4.939,0,0,1-.35,1.953,3,3,0,0,1-.927,1.251,1.99,1.99,0,0,1-1.206.432,1.374,1.374,0,0,1-1.063-.513,3.508,3.508,0,0,1-.683-1.522l-.09-.36a3.377,3.377,0,0,1-1.143,1.773,2.807,2.807,0,0,1-1.755.622,3.2,3.2,0,0,1-1.692-.415,2.653,2.653,0,0,1-1.026-1.088,3.115,3.115,0,0,1-.342-1.432,1.689,1.689,0,0,1,.891-1.5,4.441,4.441,0,0,1,2.349-.549,11.292,11.292,0,0,1,2.178.181l-.414-1.765a2.416,2.416,0,0,0-.666-1.287,1.9,1.9,0,0,0-1.315-.423,2.841,2.841,0,0,0-1.826.594,2.556,2.556,0,0,0-.855,1.891c-.025.095-.054.143-.09.143s-.072-.048-.072-.143a3.1,3.1,0,0,1,.719-1.765,3.538,3.538,0,0,1,1.486-1.017,5.238,5.238,0,0,1,1.791-.314,4.009,4.009,0,0,1,2.421.6,3.352,3.352,0,0,1,1.125,2.007l.864,3.888a2.086,2.086,0,0,0,.261.657.482.482,0,0,0,.423.226q.36,0,.612-.613a3.778,3.778,0,0,0,.234-1.511A.087.087,0,0,1,382.528,475.785Zm-4.4.621L377.8,475a5.679,5.679,0,0,0-1.476-.2,2.059,2.059,0,0,0-1.278.305,1.4,1.4,0,0,0-.378,1.134,2.262,2.262,0,0,0,.486,1.467,1.636,1.636,0,0,0,1.35.6,1.433,1.433,0,0,0,1.566-1.421A.908.908,0,0,0,378.127,476.406Z" transform="translate(-83.537 -240.394)"/><path class="cls-3" d="M394.543,475.785c.048-.006.071.027.071.1a4.939,4.939,0,0,1-.35,1.953,3.035,3.035,0,0,1-.918,1.251,1.953,1.953,0,0,1-1.2.432,1.4,1.4,0,0,1-1.071-.513,3.405,3.405,0,0,1-.692-1.5l-1.17-4.734a2.2,2.2,0,0,0-.414-.927,1.042,1.042,0,0,0-.811-.28,1.4,1.4,0,0,0-1.187.684,3.951,3.951,0,0,0-.594,1.818v3.384a2.622,2.622,0,0,0,.225,1.3.963.963,0,0,0,.855.378q.09,0,.09.072c0,.048-.03.073-.09.073q-.792-.037-2.053-.037-1.637,0-2.609.037c-.072,0-.108-.025-.108-.073s.036-.072.108-.072a1.54,1.54,0,0,0,.639-.1.69.69,0,0,0,.315-.459,4.352,4.352,0,0,0,.107-1.133V473.58a2.854,2.854,0,0,0-.17-1.161.7.7,0,0,0-.694-.351,1.373,1.373,0,0,0-.252.018q-.072.019-.09-.045c-.011-.041.006-.068.055-.081a15.529,15.529,0,0,0,1.971-.594,7.936,7.936,0,0,0,1.682-.828.319.319,0,0,1,.126-.054c.061,0,.09.042.09.126q-.161,1.585-.179,2.3a3.291,3.291,0,0,1,1.1-1.62,2.892,2.892,0,0,1,1.891-.665,2.607,2.607,0,0,1,1.746.513,2.779,2.779,0,0,1,.828,1.539l1.115,4.464c.132.576.367.864.7.864q.361,0,.622-.621a3.711,3.711,0,0,0,.243-1.5C394.471,475.824,394.494,475.792,394.543,475.785Z" transform="translate(-83.537 -240.394)"/><path class="cls-3" d="M402.931,479.2a2.144,2.144,0,0,1,.576,1.494,2.28,2.28,0,0,1-.72,1.728,2.607,2.607,0,0,1-1.872.685,2.989,2.989,0,0,1-2.358-1.081,5.211,5.211,0,0,1-1.854.4,2.073,2.073,0,0,1-1.548-.549,1.906,1.906,0,0,1-.54-1.394,2.45,2.45,0,0,1,.531-1.558,4.308,4.308,0,0,1,1.376-1.125,3.224,3.224,0,0,1-1.961-3.06,3.894,3.894,0,0,1,.585-2.106,3.953,3.953,0,0,1,1.593-1.448,4.8,4.8,0,0,1,2.214-.514,4.678,4.678,0,0,1,1.458.217,2.947,2.947,0,0,1,.7-2.124,2.154,2.154,0,0,1,1.566-.685.908.908,0,0,1,.6.19.441.441,0,0,1,.153.476l-.4,1.4c-.036.156-.114.233-.234.233a.239.239,0,0,1-.144-.054,1.927,1.927,0,0,0-1.134-.342c-.625,0-.93.325-.919.972a3.556,3.556,0,0,1,1.711,1.278,3.68,3.68,0,0,1,.045,4.05,4.1,4.1,0,0,1-1.6,1.4,5.205,5.205,0,0,1-4.059.188,3.06,3.06,0,0,0-.847.54,1,1,0,0,0-.269.739.749.749,0,0,0,.252.585.915.915,0,0,0,.63.224,3.29,3.29,0,0,0,1-.152q.477-.155,1.269-.5.828-.361,1.4-.549a3.952,3.952,0,0,1,1.242-.19A2,2,0,0,1,402.931,479.2Zm-6.066-7.713a1.916,1.916,0,0,0-.432,1.36,6.8,6.8,0,0,0,.414,2.259,5.909,5.909,0,0,0,1.1,1.961,1.935,1.935,0,0,0,1.44.784,1.673,1.673,0,0,0,1.251-.451,1.8,1.8,0,0,0,.441-1.314,6.45,6.45,0,0,0-.441-2.195,6.734,6.734,0,0,0-1.134-2.034,1.9,1.9,0,0,0-1.4-.829A1.625,1.625,0,0,0,396.865,471.483Zm5.265,11.133a.824.824,0,0,0,.423-.756.811.811,0,0,0-.243-.612.938.938,0,0,0-.675-.233,3.394,3.394,0,0,0-1.089.171,12.631,12.631,0,0,0-1.251.512l-.576.271a2.948,2.948,0,0,0,.945.647,3.229,3.229,0,0,0,1.323.252A2.226,2.226,0,0,0,402.13,482.616Z" transform="translate(-83.537 -240.394)"/><path class="cls-3" d="M414.829,475.776c.036,0,.054.031.054.09a5.057,5.057,0,0,1-.315,1.791,3.339,3.339,0,0,1-.864,1.332,1.8,1.8,0,0,1-1.233.5,1.822,1.822,0,0,1-1.341-.548,2.213,2.213,0,0,1-.549-1.629,3.013,3.013,0,0,1-.99,1.61,2.947,2.947,0,0,1-1.962.621,2.772,2.772,0,0,1-2.151-.9,3.813,3.813,0,0,1-.819-2.647V473.58a2.851,2.851,0,0,0-.171-1.161.7.7,0,0,0-.693-.351,1.359,1.359,0,0,0-.252.018q-.072.019-.09-.045c-.013-.041.006-.068.054-.081a15.48,15.48,0,0,0,1.971-.594,7.946,7.946,0,0,0,1.683-.828.222.222,0,0,1,.126-.054q.09,0,.09.126-.126,1.206-.162,1.828c-.025.414-.036.9-.036,1.449v2.25q0,2.59,1.566,2.592a1.539,1.539,0,0,0,1.341-.739,3.292,3.292,0,0,0,.5-1.872V473.58a2.869,2.869,0,0,0-.171-1.161.7.7,0,0,0-.693-.351,1.351,1.351,0,0,0-.252.018q-.072.019-.09-.045t.054-.081a15.529,15.529,0,0,0,1.971-.594,7.946,7.946,0,0,0,1.683-.828.313.313,0,0,1,.126-.054q.09,0,.09.126-.126,1.206-.162,1.828t-.036,1.449v2.88q0,1.224.63,1.223a.78.78,0,0,0,.819-.566,5.782,5.782,0,0,0,.225-1.558C414.775,475.807,414.793,475.776,414.829,475.776Z" transform="translate(-83.537 -240.394)"/><path class="cls-3" d="M425.512,475.785c.053-.006.08.027.08.1a4.921,4.921,0,0,1-.351,1.953,2.99,2.99,0,0,1-.927,1.251,1.988,1.988,0,0,1-1.206.432,1.372,1.372,0,0,1-1.062-.513,3.508,3.508,0,0,1-.684-1.522l-.09-.36a3.377,3.377,0,0,1-1.143,1.773,2.8,2.8,0,0,1-1.755.622,3.2,3.2,0,0,1-1.691-.415,2.662,2.662,0,0,1-1.027-1.088,3.128,3.128,0,0,1-.342-1.432,1.689,1.689,0,0,1,.891-1.5,4.445,4.445,0,0,1,2.35-.549,11.281,11.281,0,0,1,2.177.181l-.414-1.765a2.4,2.4,0,0,0-.666-1.287,1.9,1.9,0,0,0-1.314-.423,2.839,2.839,0,0,0-1.826.594,2.56,2.56,0,0,0-.856,1.891c-.024.095-.053.143-.09.143s-.072-.048-.072-.143a3.1,3.1,0,0,1,.72-1.765,3.528,3.528,0,0,1,1.485-1.017,5.238,5.238,0,0,1,1.791-.314,4.009,4.009,0,0,1,2.421.6,3.352,3.352,0,0,1,1.125,2.007l.864,3.888a2.135,2.135,0,0,0,.261.657.483.483,0,0,0,.423.226q.36,0,.612-.613a3.8,3.8,0,0,0,.235-1.511C425.431,475.824,425.457,475.792,425.512,475.785Zm-4.4.621-.324-1.4a5.671,5.671,0,0,0-1.475-.2,2.061,2.061,0,0,0-1.279.305,1.4,1.4,0,0,0-.378,1.134,2.257,2.257,0,0,0,.487,1.467,1.634,1.634,0,0,0,1.349.6,1.433,1.433,0,0,0,1.567-1.421A.909.909,0,0,0,421.11,476.406Z" transform="translate(-83.537 -240.394)"/><path class="cls-3" d="M433.89,479.2a2.144,2.144,0,0,1,.576,1.494,2.28,2.28,0,0,1-.72,1.728,2.607,2.607,0,0,1-1.872.685,2.989,2.989,0,0,1-2.358-1.081,5.211,5.211,0,0,1-1.854.4,2.073,2.073,0,0,1-1.548-.549,1.906,1.906,0,0,1-.54-1.394,2.455,2.455,0,0,1,.53-1.558,4.323,4.323,0,0,1,1.377-1.125,3.224,3.224,0,0,1-1.961-3.06,3.9,3.9,0,0,1,.584-2.106,3.962,3.962,0,0,1,1.594-1.448,4.8,4.8,0,0,1,2.214-.514,4.678,4.678,0,0,1,1.458.217,2.947,2.947,0,0,1,.7-2.124,2.154,2.154,0,0,1,1.566-.685.908.908,0,0,1,.6.19.441.441,0,0,1,.153.476l-.4,1.4c-.036.156-.114.233-.234.233a.239.239,0,0,1-.144-.054,1.927,1.927,0,0,0-1.134-.342c-.625,0-.93.325-.919.972a3.556,3.556,0,0,1,1.711,1.278,3.68,3.68,0,0,1,.045,4.05,4.1,4.1,0,0,1-1.6,1.4,5.205,5.205,0,0,1-4.059.188,3.06,3.06,0,0,0-.847.54,1,1,0,0,0-.269.739.749.749,0,0,0,.252.585.915.915,0,0,0,.63.224,3.29,3.29,0,0,0,1-.152q.477-.155,1.269-.5.828-.361,1.4-.549a3.952,3.952,0,0,1,1.242-.19A2,2,0,0,1,433.89,479.2Zm-6.066-7.713a1.916,1.916,0,0,0-.432,1.36,6.8,6.8,0,0,0,.414,2.259,5.909,5.909,0,0,0,1.1,1.961,1.935,1.935,0,0,0,1.44.784,1.673,1.673,0,0,0,1.251-.451,1.8,1.8,0,0,0,.441-1.314,6.45,6.45,0,0,0-.441-2.195,6.734,6.734,0,0,0-1.134-2.034,1.9,1.9,0,0,0-1.4-.829A1.625,1.625,0,0,0,427.824,471.483Zm5.265,11.133a.824.824,0,0,0,.423-.756.811.811,0,0,0-.243-.612.938.938,0,0,0-.675-.233,3.394,3.394,0,0,0-1.089.171,12.631,12.631,0,0,0-1.251.512l-.576.271a2.948,2.948,0,0,0,.945.647,3.229,3.229,0,0,0,1.323.252A2.226,2.226,0,0,0,433.089,482.616Z" transform="translate(-83.537 -240.394)"/><path class="cls-3" d="M443.105,477.612c.037.025.037.061,0,.109a4.523,4.523,0,0,1-1.737,1.332,5.22,5.22,0,0,1-2.133.468,4.551,4.551,0,0,1-2.169-.532,4.057,4.057,0,0,1-1.592-1.5,4.214,4.214,0,0,1-.594-2.25,4.345,4.345,0,0,1,.639-2.3,4.832,4.832,0,0,1,4.149-2.312,3.809,3.809,0,0,1,2.447.773,2.587,2.587,0,0,1,.973,2.142,4.446,4.446,0,0,1-.217,1.314q-2.25.055-5.6.18a5.771,5.771,0,0,0,1.7,2.331,3.621,3.621,0,0,0,2.312.945,2.166,2.166,0,0,0,1.746-.719C443.045,477.583,443.069,477.589,443.105,477.612Zm-5.778-6.065a2.49,2.49,0,0,0-.431,1.584,5.3,5.3,0,0,0,.324,1.764c.983-.025,1.7-.048,2.141-.073.649-.023,1.05-.036,1.206-.036a.853.853,0,0,0,.18-.594,3.42,3.42,0,0,0-.333-1.34,4.543,4.543,0,0,0-.837-1.3,1.406,1.406,0,0,0-.989-.54A1.519,1.519,0,0,0,437.327,471.547Z" transform="translate(-83.537 -240.394)"/><path class="cls-3" d="M449.928,473.868c.011-.084.035-.126.071-.126.061,0,.078.055.055.162q-.019.2-.019.594a5.734,5.734,0,0,0,.945,3.528,3.2,3.2,0,0,0,2.709,1.243,2.952,2.952,0,0,0,1.665-.459,1.747,1.747,0,0,0,.693-1.576,2.7,2.7,0,0,0-.8-1.953,10.243,10.243,0,0,0-2.259-1.646,20.3,20.3,0,0,1-1.925-1.3,5.514,5.514,0,0,1-1.189-1.242,2.553,2.553,0,0,1-.45-1.458,2.469,2.469,0,0,1,.648-1.612,4.452,4.452,0,0,1,1.819-1.223,7.223,7.223,0,0,1,2.664-.459,6.748,6.748,0,0,1,1.763.243,4.522,4.522,0,0,1,1.5.675,1.213,1.213,0,0,1,.593.971,1.414,1.414,0,0,1-.036.252l-.828,2.863c-.012.072-.042.107-.09.107q-.036,0-.054-.054a.224.224,0,0,1,0-.126c.012-.131.018-.324.018-.576a5.042,5.042,0,0,0-.423-2.115,3.372,3.372,0,0,0-1.206-1.448,3.207,3.207,0,0,0-1.827-.523,2.465,2.465,0,0,0-1.584.387,1.522,1.522,0,0,0-.45,1.216,1.919,1.919,0,0,0,.36,1.125,4.033,4.033,0,0,0,.982.954q.621.441,1.718,1.089a19.677,19.677,0,0,1,1.9,1.223,5.29,5.29,0,0,1,1.26,1.341,3.236,3.236,0,0,1,.512,1.81,3.125,3.125,0,0,1-.666,1.962,4.292,4.292,0,0,1-1.872,1.341,7.624,7.624,0,0,1-2.807.476,7.05,7.05,0,0,1-2.152-.323,4.671,4.671,0,0,1-1.629-.847,1.452,1.452,0,0,1-.612-1.08,1.517,1.517,0,0,1,.036-.252Z" transform="translate(-83.537 -240.394)"/><path class="cls-3" d="M467.748,477.612c.036.025.036.061,0,.109a4.523,4.523,0,0,1-1.737,1.332,5.22,5.22,0,0,1-2.133.468,4.551,4.551,0,0,1-2.169-.532,4.066,4.066,0,0,1-1.593-1.5,4.223,4.223,0,0,1-.594-2.25,4.345,4.345,0,0,1,.639-2.3,4.832,4.832,0,0,1,4.15-2.312,3.811,3.811,0,0,1,2.447.773,2.589,2.589,0,0,1,.972,2.142,4.476,4.476,0,0,1-.216,1.314q-2.25.055-5.6.18a5.759,5.759,0,0,0,1.7,2.331,3.623,3.623,0,0,0,2.313.945,2.166,2.166,0,0,0,1.746-.719C467.688,477.583,467.712,477.589,467.748,477.612Zm-5.778-6.065a2.49,2.49,0,0,0-.432,1.584,5.3,5.3,0,0,0,.324,1.764c.984-.025,1.7-.048,2.142-.073.648-.023,1.05-.036,1.206-.036a.858.858,0,0,0,.18-.594,3.438,3.438,0,0,0-.333-1.34,4.543,4.543,0,0,0-.837-1.3,1.406,1.406,0,0,0-.99-.54A1.518,1.518,0,0,0,461.97,471.547Z" transform="translate(-83.537 -240.394)"/><path class="cls-3" d="M475.965,470.971a1,1,0,0,1,.567.863,1.58,1.58,0,0,1-.036.234l-1.044,3.619c-.013.072-.039.1-.081.081s-.058-.057-.045-.118a4.908,4.908,0,0,0,.071-.845,2.485,2.485,0,0,0-.54-1.729,1.657,1.657,0,0,0-1.259-.594q-.756,0-1.036.9a8.357,8.357,0,0,0-.278,2.393v1.674a2.622,2.622,0,0,0,.225,1.3.963.963,0,0,0,.855.378q.09,0,.09.072c0,.048-.03.073-.09.073q-.792-.037-2.052-.037-1.638,0-2.61.037c-.072,0-.108-.025-.108-.073s.036-.072.108-.072a1.54,1.54,0,0,0,.639-.1.687.687,0,0,0,.315-.459,4.3,4.3,0,0,0,.108-1.133V473.58a2.851,2.851,0,0,0-.171-1.161.7.7,0,0,0-.694-.351,1.373,1.373,0,0,0-.252.018c-.047.013-.078,0-.089-.045s0-.068.054-.081a15.529,15.529,0,0,0,1.971-.594,7.97,7.97,0,0,0,1.683-.828.308.308,0,0,1,.126-.054c.06,0,.089.042.089.126q-.126,1.188-.162,1.809t-.035,1.432a6.254,6.254,0,0,1,.756-2.278,1.82,1.82,0,0,1,1.674-.944A2.367,2.367,0,0,1,475.965,470.971Z" transform="translate(-83.537 -240.394)"/><path class="cls-3" d="M486.72,471c0,.055-.025.081-.073.081a.835.835,0,0,0-.683.388,7.578,7.578,0,0,0-.738,1.484l-2.071,4.95v.09a.6.6,0,0,0,.036.181l.163.342a.209.209,0,0,1,.017.09.138.138,0,0,1-.107.143l-1.981.721a.78.78,0,0,1-.126.035.154.154,0,0,1-.107-.054.277.277,0,0,1-.072-.107L478.3,472.95a7.816,7.816,0,0,0-.738-1.484.838.838,0,0,0-.685-.388c-.048,0-.071-.026-.071-.081s.023-.081.071-.081c.265.024.528.036.792.036h2.773q.755,0,1.44-.036c.083,0,.126.024.126.072s-.043.09-.126.09q-1.136,0-1.135.847A2.6,2.6,0,0,0,481,472.95l1.927,4.59c.035.072.071.108.107.108.061,0,.1-.036.109-.108l1.925-4.59a2.887,2.887,0,0,0,.27-1.044q0-.828-1.079-.828c-.085,0-.126-.029-.126-.09s.041-.072.126-.072q.648.036,1.367.036h.234c.264,0,.529-.012.792-.036C486.7,470.916,486.72,470.943,486.72,471Z" transform="translate(-83.537 -240.394)"/><path class="cls-3" d="M491.8,479.124c.059,0,.09.027.09.081s-.031.075-.09.064q-.344-.02-2.341-.019c-1.319,0-2.094.006-2.321.019-.072,0-.109-.025-.109-.073s.037-.072.109-.072a.846.846,0,0,0,.809-.494,3.506,3.506,0,0,0,.252-1.522V473.58a2.834,2.834,0,0,0-.171-1.161.694.694,0,0,0-.693-.351,1.373,1.373,0,0,0-.252.018q-.072.019-.09-.045c-.011-.041.006-.068.055-.081a15.529,15.529,0,0,0,1.971-.594,7.96,7.96,0,0,0,1.682-.828.319.319,0,0,1,.126-.054c.061,0,.09.042.09.126q-.126,1.206-.162,1.828t-.035,1.449v3.221Q490.716,479.106,491.8,479.124Zm-3.744-10.241a.892.892,0,0,1-.378-.738,1.131,1.131,0,0,1,.521-.927,2.148,2.148,0,0,1,1.315-.388,1.7,1.7,0,0,1,1.025.279.868.868,0,0,1,.378.73,1.145,1.145,0,0,1-.521.944,2.173,2.173,0,0,1-1.332.388A1.628,1.628,0,0,1,488.052,468.883Z" transform="translate(-83.537 -240.394)"/><path class="cls-3" d="M499.374,475.74c-.024.061-.061.087-.108.081s-.054-.045-.019-.117a2.312,2.312,0,0,0,.091-.63,4.408,4.408,0,0,0-.433-1.791,5.336,5.336,0,0,0-1.106-1.629,1.966,1.966,0,0,0-1.36-.666q-1.762,0-1.763,2.088a5.422,5.422,0,0,0,.63,2.529,5.6,5.6,0,0,0,1.637,1.962,3.445,3.445,0,0,0,2.071.747,2.318,2.318,0,0,0,1.763-.7c.048-.048.084-.056.109-.027s.017.063-.019.1a4.471,4.471,0,0,1-1.71,1.385,5.159,5.159,0,0,1-2.16.451,4.636,4.636,0,0,1-2.195-.532,4.117,4.117,0,0,1-1.612-1.5,4.174,4.174,0,0,1-.6-2.25,4.36,4.36,0,0,1,.639-2.286,4.784,4.784,0,0,1,1.718-1.691,4.6,4.6,0,0,1,2.359-.63,6.065,6.065,0,0,1,1.674.225,3.516,3.516,0,0,1,1.233.576c.294.233.4.47.333.711Z" transform="translate(-83.537 -240.394)"/><path class="cls-3" d="M509.562,477.612c.036.025.036.061,0,.109a4.534,4.534,0,0,1-1.738,1.332,5.22,5.22,0,0,1-2.133.468,4.551,4.551,0,0,1-2.169-.532,4.057,4.057,0,0,1-1.592-1.5,4.214,4.214,0,0,1-.594-2.25,4.345,4.345,0,0,1,.639-2.3,4.832,4.832,0,0,1,4.149-2.312,3.809,3.809,0,0,1,2.447.773,2.587,2.587,0,0,1,.973,2.142,4.446,4.446,0,0,1-.217,1.314q-2.25.055-5.6.18a5.771,5.771,0,0,0,1.7,2.331,3.621,3.621,0,0,0,2.312.945,2.166,2.166,0,0,0,1.746-.719C509.5,477.583,509.525,477.589,509.562,477.612Zm-5.779-6.065a2.49,2.49,0,0,0-.431,1.584,5.3,5.3,0,0,0,.324,1.764c.983-.025,1.7-.048,2.141-.073.649-.023,1.05-.036,1.206-.036a.853.853,0,0,0,.18-.594,3.42,3.42,0,0,0-.333-1.34,4.543,4.543,0,0,0-.837-1.3,1.406,1.406,0,0,0-.989-.54A1.519,1.519,0,0,0,503.783,471.547Z" transform="translate(-83.537 -240.394)"/><path class="cls-3" d="M511.163,475.723c.012-.048.036-.073.072-.073s.06.031.073.09a4.633,4.633,0,0,0,.9,2.566,2.413,2.413,0,0,0,1.981.98,1.91,1.91,0,0,0,1-.216.8.8,0,0,0,.35-.738,1.843,1.843,0,0,0-.639-1.3,11.381,11.381,0,0,0-1.809-1.332,9.747,9.747,0,0,1-1.71-1.341,1.934,1.934,0,0,1-.575-1.377,1.718,1.718,0,0,1,.494-1.187,3.364,3.364,0,0,1,1.35-.856,5.463,5.463,0,0,1,1.9-.314,8.448,8.448,0,0,1,1.494.143,4.432,4.432,0,0,1,1.306.423q.512.281.423.658l-.613,2.3a.065.065,0,0,1-.062.054c-.031,0-.046-.023-.046-.071a3.88,3.88,0,0,0-.927-2.4,2.652,2.652,0,0,0-2.007-.819,1.511,1.511,0,0,0-.9.2.672.672,0,0,0-.252.559,1.266,1.266,0,0,0,.55.944,17.311,17.311,0,0,0,1.9,1.287,8.724,8.724,0,0,1,1.845,1.405,2.358,2.358,0,0,1,.693,1.691,1.955,1.955,0,0,1-.512,1.323,3.258,3.258,0,0,1-1.432.9,6.413,6.413,0,0,1-2.088.314,6.946,6.946,0,0,1-1.655-.2,3.972,3.972,0,0,1-1.287-.523c-.319-.215-.448-.456-.388-.719Z" transform="translate(-83.537 -240.394)"/></svg>